<?xml version="1.0" standalone="no"?>
<!DOCTYPE svg PUBLIC "-//W3C//DTD SVG 20010904//EN"
 "http://www.w3.org/TR/2001/REC-SVG-20010904/DTD/svg10.dtd">
<svg version="1.0" xmlns="http://www.w3.org/2000/svg"
 width="500.000000pt" height="500.000000pt" viewBox="0 0 500.000000 500.000000"
 preserveAspectRatio="xMidYMid meet">

<g transform="translate(0.000000,500.000000) scale(0.100000,-0.100000)"
fill="#000000" stroke="none">
<path d="M1315 3805 c-22 -8 -41 -15 -42 -15 -1 0 -14 -17 -28 -37 l-25 -38 0
-982 0 -982 -37 -72 c-37 -70 -38 -74 -38 -183 0 -103 2 -116 29 -171 104
-210 344 -293 552 -191 l72 36 973 0 c1086 0 1017 -4 1066 69 l23 34 0 1220 0
1220 -22 35 c-12 20 -38 42 -62 53 -39 18 -92 19 -1231 18 -1011 0 -1196 -2
-1230 -14z m755 -240 l0 -185 -395 0 -395 0 0 156 0 156 29 29 29 29 366 0
366 0 0 -185z m870 0 l0 -185 -400 0 -400 0 0 185 0 185 400 0 400 0 0 -185z
m831 156 l29 -29 0 -156 0 -156 -395 0 -395 0 0 185 0 185 366 0 366 0 29 -29z
m-1691 -1446 l0 -1045 -110 0 c-60 0 -110 3 -110 6 0 3 9 18 19 33 11 15 29
52 41 81 77 196 -14 418 -210 512 -122 59 -278 48 -392 -27 l-38 -25 0 755 0
755 400 0 400 0 0 -1045z m860 0 l0 -1045 -400 0 -400 0 0 1045 0 1045 400 0
400 0 0 -1045z m860 31 l0 -1015 -24 -28 -24 -28 -376 -3 -376 -3 0 1046 0
1045 400 0 400 0 0 -1014z m-2117 -500 c66 -29 141 -102 171 -166 17 -36 21
-65 21 -145 0 -90 -3 -105 -27 -152 -38 -70 -90 -120 -168 -157 -166 -79 -359
-8 -442 162 -30 60 -33 76 -33 152 1 73 5 93 29 140 86 171 278 242 449 166z"/>
<path d="M1392 3588 c-17 -17 -15 -36 6 -47 11 -6 132 -10 284 -11 231 0 268
2 282 15 12 13 13 21 6 36 -10 18 -24 19 -288 19 -203 0 -281 -3 -290 -12z"/>
<path d="M2252 3588 c-16 -16 -15 -23 4 -42 13 -14 53 -16 284 -16 231 0 271
2 284 16 19 19 20 26 4 42 -17 17 -559 17 -576 0z"/>
<path d="M3107 3593 c-14 -13 -7 -42 12 -53 12 -6 121 -10 283 -10 214 0 268
3 284 14 15 12 17 18 8 33 -10 17 -34 18 -296 21 -156 1 -287 -1 -291 -5z"/>
<path d="M1390 3200 c-6 -12 -10 -112 -10 -270 1 -209 4 -252 16 -265 13 -13
57 -15 283 -15 194 0 270 3 279 12 9 9 12 85 12 279 0 234 -2 268 -16 273 -9
3 -137 6 -284 6 -258 0 -270 -1 -280 -20z m510 -265 l0 -215 -225 0 -225 0 0
215 0 215 225 0 225 0 0 -215z"/>
<path d="M1396 2544 c-24 -23 -23 -515 0 -539 13 -13 55 -15 279 -15 145 0
270 3 279 6 14 5 16 39 16 279 0 240 -2 274 -16 279 -9 3 -134 6 -279 6 -226
0 -266 -2 -279 -16z m514 -269 l0 -215 -230 0 -230 0 0 215 0 215 230 0 230 0
0 -215z"/>
<path d="M2257 3213 c-4 -3 -7 -129 -7 -279 0 -239 2 -273 16 -278 20 -8 528
-8 548 0 14 5 16 39 16 279 0 240 -2 274 -16 279 -21 8 -549 8 -557 -1z m513
-278 l0 -215 -230 0 -230 0 0 215 0 215 230 0 230 0 0 -215z"/>
<path d="M2263 2553 c-10 -4 -13 -69 -13 -278 0 -240 2 -274 16 -279 20 -8
528 -8 548 0 14 5 16 39 16 279 0 235 -2 274 -15 279 -18 7 -534 6 -552 -1z
m507 -278 l0 -215 -230 0 -230 0 0 215 0 215 230 0 230 0 0 -215z"/>
<path d="M2262 1892 c-9 -7 -12 -70 -10 -283 l3 -274 265 -3 c146 -1 275 0
288 3 l22 5 0 274 c0 241 -2 275 -16 280 -24 9 -537 7 -552 -2z m508 -277 l0
-215 -230 0 -230 0 0 215 0 215 230 0 230 0 0 -215z"/>
<path d="M3123 3213 c-10 -3 -13 -69 -13 -278 0 -240 2 -274 16 -279 9 -3 134
-6 279 -6 222 0 266 2 279 15 12 13 15 57 16 265 0 160 -3 257 -10 270 -10 19
-21 20 -283 19 -150 0 -278 -3 -284 -6z m415 -62 l92 -1 0 -215 0 -215 -230 0
-230 0 0 220 0 221 138 -5 c75 -3 179 -5 230 -5z"/>
<path d="M3123 2553 c-10 -3 -13 -69 -13 -278 0 -229 2 -274 14 -278 8 -3 134
-6 280 -6 225 -1 267 2 280 15 23 23 23 515 0 538 -13 14 -53 16 -282 15 -147
0 -273 -3 -279 -6z m507 -278 l0 -215 -230 0 -230 0 0 215 0 215 230 0 230 0
0 -215z"/>
<path d="M3123 1893 c-10 -4 -13 -68 -13 -278 0 -240 2 -274 16 -279 9 -3 137
-6 284 -6 256 0 270 1 280 19 6 12 10 116 10 270 0 212 -2 252 -16 265 -13 13
-53 15 -282 14 -147 0 -273 -3 -279 -5z m507 -278 l0 -215 -230 0 -230 0 0
215 0 215 230 0 230 0 0 -215z"/>
<path d="M1578 1533 l-107 -107 -40 37 c-23 20 -45 37 -49 37 -13 0 -32 -23
-32 -37 0 -22 92 -113 115 -113 29 0 265 238 265 268 0 49 -42 25 -152 -85z"/>
</g>
</svg>
